<?xml version="1.0" encoding="utf-8"?>
<!-- Generator: Adobe Illustrator 20.0.0, SVG Export Plug-In . SVG Version: 6.00 Build 0)  -->
<svg version="1.1" id="Layer_1" xmlns="http://www.w3.org/2000/svg" xmlns:xlink="http://www.w3.org/1999/xlink" x="0px" y="0px"
	 viewBox="0 0 369.6 85.4" style="enable-background:new 0 0 369.6 85.4;" xml:space="preserve">
<style type="text/css">
	.st0{fill:#FFFFFF;}
</style>
<g>
	<path class="st0" d="M244.4,57.7c0.8,1.2,1.8,2.2,3.1,2.9s2.8,1.1,4.6,1.1c1.9,0,3.4-0.4,4.6-1.1c1.2-0.7,2.2-1.7,3-2.9
		s1.3-2.6,1.6-4.2s0.5-3.2,0.5-4.8s-0.2-3.3-0.5-4.8s-0.9-3-1.7-4.2c-0.8-1.2-1.8-2.2-3.1-3c-1.2-0.8-2.8-1.2-4.6-1.2
		c-1.9,0-3.4,0.4-4.6,1.2c-1.2,0.8-2.2,1.8-3,3s-1.3,2.6-1.6,4.2s-0.5,3.2-0.5,4.9c0,1.6,0.2,3.3,0.5,4.8
		C243.1,55.1,243.6,56.5,244.4,57.7z"/>
	<path class="st0" d="M229.1,63.7c-1.5,2-3.4,3.5-5.6,4.7c-2.2,1.2-4.9,1.7-7.9,1.7c-2.5,0-4.9-0.5-7-1.5s-3.9-2.6-5.3-4.6h-0.2
		v21.4h28.2V60C230.7,61.3,230,62.5,229.1,63.7z"/>
	<path class="st0" d="M30.3,50.6c-0.8,0.2-1.7,0.3-2.6,0.4c-0.9,0.1-1.8,0.2-2.7,0.4c-0.8,0.2-1.7,0.4-2.5,0.6
		c-0.8,0.3-1.5,0.6-2.1,1.1s-1.1,1-1.5,1.7s-0.6,1.6-0.6,2.6s0.2,1.9,0.6,2.5c0.4,0.7,0.9,1.2,1.5,1.6s1.4,0.7,2.2,0.8
		c0.8,0.2,1.7,0.2,2.6,0.2c2.2,0,3.9-0.4,5.2-1.1c1.2-0.7,2.1-1.6,2.7-2.7c0.6-1,0.9-2.1,1.1-3.1c0.1-1.1,0.2-1.9,0.2-2.5V49
		c-0.5,0.4-1.1,0.8-1.8,1C31.9,50.2,31.1,50.4,30.3,50.6z"/>
	<path class="st0" d="M176.9,50.6c-0.8,0.2-1.7,0.3-2.6,0.4c-0.9,0.1-1.8,0.2-2.7,0.4c-0.8,0.2-1.7,0.4-2.5,0.6
		c-0.8,0.3-1.5,0.6-2.1,1.1s-1.1,1-1.5,1.7s-0.6,1.6-0.6,2.6s0.2,1.9,0.6,2.5c0.4,0.7,0.9,1.2,1.5,1.6s1.4,0.7,2.2,0.8
		c0.8,0.2,1.7,0.2,2.6,0.2c2.2,0,3.9-0.4,5.2-1.1c1.2-0.7,2.1-1.6,2.7-2.7c0.6-1,0.9-2.1,1.1-3.1c0.1-1.1,0.2-1.9,0.2-2.5V49
		c-0.5,0.4-1.1,0.8-1.8,1C178.4,50.2,177.7,50.4,176.9,50.6z"/>
	<path class="st0" d="M73.6,39.6c-0.8-1.2-1.8-2.2-3.1-3c-1.2-0.8-2.8-1.2-4.6-1.2c-1.9,0-3.4,0.4-4.6,1.2c-1.2,0.8-2.2,1.8-3,3
		s-1.3,2.6-1.6,4.2s-0.5,3.2-0.5,4.9c0,1.6,0.2,3.3,0.5,4.8c0.3,1.6,0.9,3,1.7,4.2s1.8,2.2,3.1,2.9s2.8,1.1,4.6,1.1
		c1.9,0,3.4-0.4,4.6-1.1c1.2-0.7,2.2-1.7,3-2.9s1.3-2.6,1.6-4.2s0.5-3.2,0.5-4.8s-0.2-3.3-0.5-4.8C74.9,42.2,74.4,40.8,73.6,39.6z"
		/>
	<path class="st0" d="M97.8,57.7c0.8,1.2,1.8,2.2,3.1,2.9c1.3,0.7,2.8,1.1,4.6,1.1c1.9,0,3.4-0.4,4.6-1.1c1.2-0.7,2.2-1.7,3-2.9
		s1.3-2.6,1.6-4.2s0.5-3.2,0.5-4.8s-0.2-3.3-0.5-4.8c-0.3-1.6-0.9-3-1.7-4.2c-0.8-1.2-1.8-2.2-3.1-3c-1.2-0.8-2.8-1.2-4.6-1.2
		c-1.9,0-3.4,0.4-4.6,1.2s-2.2,1.8-3,3s-1.3,2.6-1.6,4.2s-0.5,3.2-0.5,4.9c0,1.6,0.2,3.3,0.5,4.8C96.5,55.1,97.1,56.5,97.8,57.7z"/>
	<path class="st0" d="M220.1,39.6c-0.8-1.2-1.8-2.2-3.1-3c-1.2-0.8-2.8-1.2-4.6-1.2c-1.9,0-3.4,0.4-4.6,1.2c-1.2,0.8-2.2,1.8-3,3
		s-1.3,2.6-1.6,4.2s-0.5,3.2-0.5,4.9c0,1.6,0.2,3.3,0.5,4.8c0.3,1.6,0.9,3,1.7,4.2s1.8,2.2,3.1,2.9s2.8,1.1,4.6,1.1
		c1.9,0,3.4-0.4,4.6-1.1c1.2-0.7,2.2-1.7,3-2.9s1.3-2.6,1.6-4.2s0.5-3.2,0.5-4.8s-0.2-3.3-0.5-4.8S220.9,40.8,220.1,39.6z"/>
	<path class="st0" d="M369.6,0H0v85.4h45.3V69h-9.7c-0.2-0.6-0.4-1.3-0.5-1.9c-0.1-0.7-0.2-1.3-0.3-2C33,67,30.9,68.2,28.5,69
		c-2.4,0.7-4.9,1.1-7.5,1.1c-2,0-3.8-0.2-5.5-0.7s-3.2-1.2-4.4-2.2c-1.3-1-2.3-2.3-3-3.8S7,60,7,57.9c0-2.3,0.4-4.2,1.2-5.8
		c0.8-1.5,1.9-2.7,3.2-3.6c1.3-0.9,2.8-1.6,4.4-2c1.7-0.4,3.3-0.8,5-1.1s3.4-0.5,5-0.6c1.6-0.2,3.1-0.4,4.4-0.7s2.3-0.8,3-1.4
		c0.7-0.6,1.1-1.5,1-2.7c0-1.2-0.2-2.2-0.6-2.9c-0.4-0.7-0.9-1.3-1.6-1.7c-0.7-0.4-1.4-0.7-2.3-0.8s-1.8-0.2-2.8-0.2
		c-2.2,0-4,0.5-5.2,1.4s-2,2.5-2.2,4.8H8.4c0.2-2.6,0.8-4.8,2-6.6c1.2-1.7,2.6-3.1,4.4-4.2s3.8-1.8,6.1-2.3c2.2-0.4,4.5-0.7,6.8-0.7
		c2.1,0,4.2,0.1,6.3,0.4s4,0.9,5.8,1.7c1.7,0.8,3.2,2,4.3,3.5c0.6,0.9,1.1,1.9,1.3,3.1V28H56v5.2h0.2c1.4-2.2,3.1-3.8,5.2-4.8
		c2.1-1,4.4-1.5,7-1.5c3.2,0,6,0.6,8.3,1.8c2.3,1.2,4.3,2.8,5.8,4.8c0.9,1.1,1.6,2.4,2.2,3.8V28h10.7v5.2h0.2
		c1.4-2.2,3.1-3.8,5.2-4.8s4.4-1.5,7-1.5c3.2,0,6,0.6,8.3,1.8c2.3,1.2,4.3,2.8,5.8,4.8s2.7,4.4,3.4,7c0.2,0.6,0.3,1.3,0.5,1.9H148
		v9.7h-21.7c-0.2,1.6-0.5,3.2-0.9,4.7c-0.7,2.5-1.9,4.8-3.4,6.7c-1.5,2-3.4,3.5-5.6,4.7s-4.9,1.7-7.9,1.7c-2.5,0-4.9-0.5-7-1.5
		S97.6,66,96.2,64H96v21.4h95.9V69h-9.7c-0.2-0.6-0.4-1.3-0.5-1.9c-0.1-0.7-0.2-1.3-0.3-2c-1.8,1.9-3.9,3.1-6.3,3.9
		c-2.4,0.7-4.9,1.1-7.5,1.1c-2,0-3.8-0.2-5.5-0.7s-3.2-1.2-4.4-2.2c-1.3-1-2.3-2.3-3-3.8s-1.1-3.4-1.1-5.5c0-2.3,0.4-4.2,1.2-5.8
		c0.8-1.5,1.9-2.7,3.2-3.6c1.3-0.9,2.8-1.6,4.4-2c1.7-0.4,3.3-0.8,5-1.1s3.4-0.5,5-0.6c1.6-0.2,3.1-0.4,4.4-0.7s2.3-0.8,3-1.4
		c0.7-0.6,1.1-1.5,1-2.7c0-1.2-0.2-2.2-0.6-2.9c-0.4-0.7-0.9-1.3-1.6-1.7c-0.7-0.4-1.4-0.7-2.3-0.8c-0.9-0.1-1.8-0.2-2.8-0.2
		c-2.2,0-4,0.5-5.2,1.4c-1.3,1-2,2.5-2.2,4.8h-11.3c0.2-2.6,0.8-4.8,2-6.6c1.2-1.7,2.6-3.1,4.4-4.2c1.8-1.1,3.8-1.8,6.1-2.3
		c2.2-0.4,4.5-0.7,6.8-0.7c2.1,0,4.2,0.1,6.3,0.4s4,0.9,5.8,1.7c1.7,0.8,3.2,2,4.3,3.5c0.6,0.9,1.1,1.9,1.3,3.1V28h10.7v5.2h0.2
		c1.4-2.2,3.1-3.8,5.2-4.8c2.1-1,4.4-1.5,7-1.5c3.2,0,6,0.6,8.3,1.8c2.3,1.2,4.3,2.8,5.8,4.8c0.9,1.1,1.6,2.4,2.2,3.8V28H242v5.2
		h0.2c1.4-2.2,3.1-3.8,5.2-4.8c2.1-1,4.4-1.5,7-1.5c3.2,0,6,0.6,8.3,1.8c2.3,1.2,4.3,2.8,5.8,4.8s2.7,4.4,3.4,7
		c0.7,2.7,1.1,5.5,1.1,8.4c0,2.8-0.4,5.4-1.1,7.9s-1.9,4.8-3.4,6.7c-1.5,2-3.4,3.5-5.6,4.7s-4.9,1.7-7.9,1.7c-2.5,0-4.9-0.5-7-1.5
		s-3.9-2.6-5.3-4.6h-0.2v21.4h127V0H369.6z M291.6,69h-12.5V56.8h12.5V69z M312.1,69h-11.3V28h11.3V69z M312.1,21.7h-11.3v-9.3h11.3
		V21.7z M357.5,57.5c-1,2.6-2.4,4.9-4.3,6.8s-4.1,3.3-6.7,4.3s-5.5,1.5-8.8,1.5c-3.2,0-6.1-0.5-8.7-1.5s-4.8-2.4-6.7-4.3
		c-1.9-1.9-3.3-4.1-4.3-6.8c-1-2.6-1.5-5.6-1.5-8.9s0.5-6.3,1.5-8.9c1-2.7,2.4-4.9,4.3-6.8c1.9-1.9,4.1-3.3,6.7-4.4
		c2.6-1,5.5-1.5,8.7-1.5s6.1,0.5,8.8,1.5c2.6,1,4.9,2.5,6.7,4.4c1.9,1.9,3.3,4.2,4.3,6.8c1,2.7,1.5,5.6,1.5,8.9
		C359,51.9,358.5,54.8,357.5,57.5z"/>
	<path class="st0" d="M345.6,39.5c-0.8-1.2-1.8-2.2-3.1-3c-1.3-0.8-2.9-1.2-4.8-1.2s-3.5,0.4-4.8,1.2s-2.3,1.8-3.1,3
		c-0.8,1.2-1.3,2.6-1.6,4.2s-0.5,3.2-0.5,4.8s0.2,3.2,0.5,4.8s0.9,3,1.6,4.2c0.8,1.2,1.8,2.2,3.1,3c1.3,0.7,2.9,1.1,4.8,1.1
		s3.5-0.4,4.8-1.1c1.3-0.7,2.3-1.7,3.1-3c0.8-1.2,1.3-2.6,1.6-4.2c0.3-1.6,0.5-3.2,0.5-4.8s-0.2-3.3-0.5-4.8S346.4,40.7,345.6,39.5z
		"/>
	<path class="st0" d="M82.6,63.7c-1.5,2-3.4,3.5-5.6,4.7s-4.9,1.7-7.9,1.7c-2.5,0-4.9-0.5-7-1.5s-4-2.6-5.3-4.6h-0.2v21.4h28.2V60
		C84.2,61.3,83.4,62.5,82.6,63.7z"/>
</g>
</svg>
