<?xml version="1.0" encoding="utf-8"?>
<!-- Generator: Adobe Illustrator 20.0.0, SVG Export Plug-In . SVG Version: 6.00 Build 0)  -->
<svg version="1.1" id="Layer_1" xmlns="http://www.w3.org/2000/svg" xmlns:xlink="http://www.w3.org/1999/xlink" x="0px" y="0px"
	 viewBox="0 0 42 46.7" style="enable-background:new 0 0 42 46.7;" xml:space="preserve">
<style type="text/css">
	.st0{fill:#FFFFFF;}
	.st1{font-family:'HelveticaNeue-Bold';}
	.st2{font-size:7.3221px;}
</style>
<g>
	<g>
		<path class="st0" d="M0.1,27.7c-0.7-7.4,2.5-14.1,7.7-18.3c2-1.7,5.1-0.2,5.1,2.4c0,1-0.5,1.8-1.2,2.4c-3.7,3-5.9,7.8-5.4,13
			c0.7,6.8,6.2,12.4,13,13.2c8.9,1,16.5-6,16.5-14.7c0-4.6-2.1-8.8-5.5-11.5c-0.7-0.6-1.2-1.5-1.2-2.4c0-2.6,3-4.1,5-2.4
			C39,13.2,42,19.1,42,25.7c0,12.1-10.3,21.8-22.5,20.9C9.3,45.9,1,37.8,0.1,27.7L0.1,27.7z M21,0c-1.7,0-3.1,1.4-3.1,3.1v14.3
			c0,1.7,1.4,3.1,3.1,3.1s3.1-1.4,3.1-3.1V3.1C24.1,1.4,22.7,0,21,0L21,0z"/>
	</g>
</g>
<g>
	<text transform="matrix(1 0 0 1 9.3467 29.541)" class="st0 st1 st2">enable</text>
	<text transform="matrix(1 0 0 1 9.3467 29.541)" class="st0 st1 st2">enable</text>
</g>
</svg>
